<svg width="25" height="19" viewBox="0 0 25 19" fill="none" xmlns="http://www.w3.org/2000/svg">
<path fill-rule="evenodd" clip-rule="evenodd" d="M23.125 18.6667C23.125 18.6667 24.6667 18.6667 24.6667 17.1111C24.6667 15.5556 23.125 10.8889 16.9583 10.8889C10.7917 10.8889 9.25 15.5556 9.25 17.1111C9.25 18.6667 10.7917 18.6667 10.7917 18.6667H23.125ZM10.8256 17.1111H23.0911C23.0983 17.1103 23.1055 17.1092 23.1127 17.108L23.125 17.1049C23.1219 16.6942 22.8675 15.5027 21.9533 14.4293C21.1023 13.4229 19.6069 12.4444 16.9583 12.4444C14.3113 12.4444 12.8159 13.4244 11.9633 14.4293C11.0491 15.5027 10.7932 16.6958 10.7917 17.1049C10.8029 17.1071 10.8143 17.1092 10.8256 17.1111V17.1111ZM16.9583 7.77778C17.7761 7.77778 18.5603 7.45 19.1386 6.86655C19.7168 6.28311 20.0417 5.49178 20.0417 4.66667C20.0417 3.84155 19.7168 3.05023 19.1386 2.46678C18.5603 1.88333 17.7761 1.55556 16.9583 1.55556C16.1406 1.55556 15.3563 1.88333 14.7781 2.46678C14.1998 3.05023 13.875 3.84155 13.875 4.66667C13.875 5.49178 14.1998 6.28311 14.7781 6.86655C15.3563 7.45 16.1406 7.77778 16.9583 7.77778ZM21.5833 4.66667C21.5833 5.2795 21.4637 5.88634 21.2313 6.45252C20.9988 7.01871 20.6582 7.53316 20.2287 7.9665C19.7992 8.39984 19.2894 8.74358 18.7282 8.9781C18.1671 9.21263 17.5657 9.33333 16.9583 9.33333C16.351 9.33333 15.7496 9.21263 15.1884 8.9781C14.6273 8.74358 14.1174 8.39984 13.688 7.9665C13.2585 7.53316 12.9178 7.01871 12.6854 6.45252C12.453 5.88634 12.3333 5.2795 12.3333 4.66667C12.3333 3.42899 12.8206 2.242 13.688 1.36684C14.5553 0.491665 15.7317 0 16.9583 0C18.185 0 19.3613 0.491665 20.2287 1.36684C21.0961 2.242 21.5833 3.42899 21.5833 4.66667V4.66667ZM10.693 11.3244C10.0763 11.1285 9.4406 10.9997 8.79675 10.9402C8.43497 10.9055 8.07174 10.8884 7.70833 10.8889C1.54167 10.8889 0 15.5556 0 17.1111C0 18.1487 0.513375 18.6667 1.54167 18.6667H8.04133C7.81279 18.181 7.69881 17.6486 7.70833 17.1111C7.70833 15.54 8.28954 13.9347 9.38875 12.5938C9.76337 12.1364 10.1997 11.7087 10.693 11.3244ZM7.585 12.4444C5.0135 12.4756 3.55354 13.44 2.71333 14.4293C1.79296 15.5089 1.54167 16.7051 1.54167 17.1111H6.16667C6.16667 15.4856 6.66462 13.8662 7.585 12.4444ZM2.3125 5.44444C2.3125 4.20677 2.79978 3.01978 3.66713 2.14461C4.53449 1.26944 5.71087 0.777778 6.9375 0.777778C8.16413 0.777778 9.34051 1.26944 10.2079 2.14461C11.0752 3.01978 11.5625 4.20677 11.5625 5.44444C11.5625 6.68212 11.0752 7.86911 10.2079 8.74428C9.34051 9.61945 8.16413 10.1111 6.9375 10.1111C5.71087 10.1111 4.53449 9.61945 3.66713 8.74428C2.79978 7.86911 2.3125 6.68212 2.3125 5.44444V5.44444ZM6.9375 2.33333C6.11975 2.33333 5.33549 2.66111 4.75725 3.24456C4.17902 3.828 3.85417 4.61933 3.85417 5.44444C3.85417 6.26956 4.17902 7.06089 4.75725 7.64433C5.33549 8.22778 6.11975 8.55556 6.9375 8.55556C7.75525 8.55556 8.53951 8.22778 9.11775 7.64433C9.69598 7.06089 10.0208 6.26956 10.0208 5.44444C10.0208 4.61933 9.69598 3.828 9.11775 3.24456C8.53951 2.66111 7.75525 2.33333 6.9375 2.33333Z" fill="white"/>
</svg>
